<svg xmlns="http://www.w3.org/2000/svg" viewBox="0 0 197.29 197.29"><defs><style>.cls-1{fill:#fff;stroke:#d81f2c;}.cls-1,.cls-2{stroke-miterlimit:10;stroke-width:3px;}.cls-2{fill:#d81f2c;stroke:#fff;}</style></defs><title>Asset 2</title><g id="Layer_2" data-name="Layer 2"><g id="Layer_1-2" data-name="Layer 1"><path class="cls-1" d="M1.5,98.65a97.15,97.15,0,1,1,97.15,97.15A97.15,97.15,0,0,1,1.5,98.65"/><path class="cls-2" d="M37.92,92.87a21.83,21.83,0,0,1-3.59-11.18c-.14-8,4.29-14.18,15-14.34,10.06-.14,17.56,9.8,17.56,9.8s-3.87-38,43.29-38c48.28,0,46.86,57.29,46.86,57.29s21.23-.7,22.39,21.8c.86,16.81-10.4,23.95-21.09,24.79-9,.71-36,0-36,0v7.77h-8.14V114.71h16.17L98.19,78.57,66.06,114.71h16v36.14h-8v-7.77s-22.78,1.05-30.27,0c-8.89-1.25-25.82-7.39-25.95-24.79C17.79,106.66,24.71,97.43,37.92,92.87Z"/></g></g></svg>