<svg xmlns="http://www.w3.org/2000/svg" viewBox="0 0 197.29 197.29"><defs><style>.cls-1{fill:#fff;stroke:#d81f2c;}.cls-1,.cls-2,.cls-3{stroke-miterlimit:10;}.cls-1,.cls-2{stroke-width:3px;}.cls-2,.cls-3{fill:#d81f2c;stroke:#fff;}</style></defs><title>Asset 1</title><g id="Layer_2" data-name="Layer 2"><g id="Layer_1-2" data-name="Layer 1"><path class="cls-1" d="M1.5,98.65a97.15,97.15,0,1,1,97.15,97.15A97.15,97.15,0,0,1,1.5,98.65"/><path class="cls-2" d="M45.77,67.19l1.74,6.08A4.86,4.86,0,0,1,38.17,76l-2.51-8.76H27.8l17.86,68.58h100l17.85-68.58Z"/><circle class="cls-2" cx="68.87" cy="152.72" r="11.58"/><circle class="cls-2" cx="131.75" cy="152.72" r="11.58"/><path class="cls-3" d="M44.18,79.07a4.87,4.87,0,0,1-6-3.32L35.66,67,28.84,43.18a4.87,4.87,0,0,1,3.32-6A4.7,4.7,0,0,1,33.49,37a4.88,4.88,0,0,1,4.68,3.52L45.77,67l1.74,6.08A4.86,4.86,0,0,1,44.18,79.07Z"/></g></g></svg>